<?xml version="1.0" encoding="UTF-8" standalone="no"?>
<svg
   xmlns:dc="http://purl.org/dc/elements/1.1/"
   xmlns:cc="http://creativecommons.org/ns#"
   xmlns:rdf="http://www.w3.org/1999/02/22-rdf-syntax-ns#"
   xmlns:svg="http://www.w3.org/2000/svg"
   xmlns="http://www.w3.org/2000/svg"
   width="300"
   height="300"
   viewBox="0 0 300 300"
   version="1.1"
   id="SVGRoot">
  <defs
     id="defs847" />
  <metadata
     id="metadata850">
    <rdf:RDF>
      <cc:Work
         rdf:about="">
        <dc:format>image/svg+xml</dc:format>
        <dc:type
           rdf:resource="http://purl.org/dc/dcmitype/StillImage" />
        <dc:title></dc:title>
      </cc:Work>
    </rdf:RDF>
  </metadata>
  <g
     transform="translate(-3.4004482,-0.89980937)"
     id="g822">
    <g
       transform="translate(0,-780)"
       id="layer1">
      <rect
         ry="29.156822"
         y="785.29004"
         x="7.6510096"
         height="291.31421"
         width="291.94397"
         id="rect1456"
         style="opacity:1;fill:#4349c4;fill-opacity:1;fill-rule:nonzero;stroke:#040404;stroke-width:5.72912264;stroke-linecap:round;stroke-linejoin:miter;stroke-miterlimit:2.70000005;stroke-dasharray:none;stroke-dashoffset:0;stroke-opacity:1;paint-order:normal" />
      <path
         style="stroke-width:0.46049649"
         d="m 140.09744,923.40905 a 130.5952,132.4098 0 0 0 -10.38139,-49.01147 c -41.525553,19.66025 -72.029508,56.75495 -82.456543,100.5268 a 113.87522,115.4575 0 0 0 26.022027,37.60482 152.68883,154.81041 0 0 1 66.815906,-89.12015 z M 123.22202,861.08979 A 129.98695,131.7931 0 0 0 96.971265,828.3073 C 55.354161,851.39882 30.749837,899.20469 39.804984,949.88547 55.079783,911.3532 84.806334,879.40536 123.22202,861.08979 Z m 85.79515,76.55436 c 3.933,-46.27576 -12.48521,-91.57774 -44.5897,-122.59819 -6.72277,-0.78829 -23.59827,-2.55034 -45.22991,3.94129 a 152.68883,154.81041 0 0 1 42.76026,103.27182 130.3391,132.15014 0 0 0 47.05935,15.38508 z m -57.02909,4.40502 a 130.94734,132.76683 0 0 0 -36.67789,33.66351 c 37.50102,26.56922 84.37738,34.82272 126.90906,22.16409 a 113.02915,114.59967 0 0 0 19.29942,-41.68522 153.70867,155.84443 0 0 1 -36.99806,4.8223 c -24.97015,-0.0462 -49.80321,-6.53791 -72.53253,-18.96468 z m -44.95555,46.22935 c -6.9514,12.05568 -11.753346,25.22438 -14.680297,39.04218 a 112.99256,114.56257 0 0 0 132.168377,-10.2474 c -51.63257,7.4654 -92.9752,-11.4993 -117.48808,-28.79478 z m 82.45665,-167.20467 c 25.29035,32.64339 37.72974,74.74593 34.11676,117.59041 a 131.06626,132.8874 0 0 0 41.02251,-6.58435 c 0,-0.92738 0.13728,-1.85469 0.13728,-2.78206 0,-49.98522 -31.41862,-92.31968 -75.27655,-108.224 z"
         id="path1522" />
      <path
         transform="matrix(0.21572101,0,0,0.22952404,-116.50901,830.86235)"
         id="path1430-9"
         d="m 1034.7316,219.79494 c -39.05152,124.96058 -78.10332,249.92208 -95.32219,322.23563 -17.21886,72.31355 -12.6036,91.97552 36.99053,105.75417 49.59416,13.77865 144.15866,21.67081 197.73366,10.73453 53.5751,-10.93628 66.1572,-40.6983 84.6864,-115.59921 18.5293,-74.90091 43.0036,-194.93112 69.7147,-260.32259 26.7112,-65.39146 55.6599,-76.14218 103.9521,-80.92032 48.2922,-4.77814 115.9477,-3.58642 183.596,-2.39483"
         style="fill:none;stroke:#fcfcfc;stroke-width:103.60319519;stroke-linecap:round;stroke-linejoin:miter;stroke-miterlimit:2.70000005;stroke-dasharray:none;stroke-opacity:1" />
      <path
         transform="matrix(0.09052195,0,0,0.20527676,36.741012,847.93427)"
         id="path1434-1"
         d="m 1633.1159,402.69384 c 141.6788,0.95238 283.3587,1.90476 425.0394,2.85715"
         style="fill:none;stroke:#fcfcfc;stroke-width:113.17828369;stroke-linecap:round;stroke-linejoin:miter;stroke-miterlimit:4;stroke-dasharray:none;stroke-opacity:1" />
    </g>
  </g>
</svg>
